<svg width="25" height="26" viewBox="0 0 25 26" fill="none" xmlns="http://www.w3.org/2000/svg">
<path d="M21.7579 25.3321C21.7579 24.7157 21.723 24.1636 21.7681 23.6184C21.8132 23.0605 21.6473 22.7242 21.135 22.4418C20.1498 21.9012 19.6679 21.007 19.6747 19.8569C19.6803 19.019 19.6995 18.181 19.6747 17.3431C19.6329 15.906 20.1803 14.8017 21.2738 13.8697C23.4327 12.0285 24.3366 9.62837 23.9766 6.79203C23.4067 2.29818 19.291 -0.678199 14.8322 0.133333C10.5868 0.905838 7.7948 5.2298 8.74614 9.55605C9.1321 11.3111 10.0451 12.7287 11.3609 13.9213C12.9589 15.3699 13.5796 17.1916 13.162 19.3312C12.6226 22.0883 9.98412 24.0408 7.22941 23.7596C4.40474 23.4715 2.22218 21.0748 2.2109 18.2338C2.20413 16.4007 2.92638 14.9119 4.33138 13.7675C5.69576 12.6553 6.46428 11.2181 6.56133 9.4516C6.62002 8.38869 6.5918 7.31889 6.56359 6.25368C6.5523 5.82094 6.46992 5.38017 6.35933 4.96005C5.78604 2.7975 4.27044 1.54519 2.27748 0.646423C2.27748 1.30644 2.31134 1.89643 2.26733 2.47954C2.22896 2.98575 2.40162 3.27386 2.84625 3.51491C3.89916 4.08654 4.40248 5.014 4.38555 6.23073C4.37314 7.08702 4.36411 7.94447 4.37652 8.80192C4.39571 10.1518 3.87433 11.2032 2.84738 12.0756C0.479754 14.0878 -0.405003 16.6957 0.169412 19.7467C0.927776 23.7745 4.55709 26.3767 8.69197 25.9554C12.4759 25.5697 15.4845 22.1836 15.4958 18.2407C15.5026 15.8015 14.567 13.7698 12.758 12.1502C11.133 10.6947 10.4728 8.87538 10.8881 6.71053C11.4625 3.71808 14.4 1.74607 17.3511 2.32803C20.3462 2.91917 22.3188 5.85653 21.75 8.87767C21.4848 10.2884 20.7603 11.4029 19.6645 12.2983C18.1952 13.4989 17.4922 15.0795 17.4764 16.9827C17.4696 17.7253 17.4752 18.468 17.4741 19.2106C17.4718 22.1641 18.9705 24.1257 21.7579 25.3333V25.3321Z" fill="white"/>
</svg>
